<mxfile host="app.diagrams.net" modified="2024-07-12T18:41:55.372Z" agent="Mozilla/5.0 (Macintosh; Intel Mac OS X 10_15_7) AppleWebKit/537.36 (KHTML, like Gecko) Chrome/124.0.0.0 Whale/3.26.244.21 Safari/537.36" etag="LXB2SpsMNY-hgVQ1RA4P" version="24.6.5" type="device">
  <diagram name="페이지-1" id="-yjcsuDPPfiVAaao8u9j">
    <mxGraphModel dx="837" dy="698" grid="1" gridSize="10" guides="1" tooltips="1" connect="1" arrows="1" fold="1" page="1" pageScale="1" pageWidth="827" pageHeight="1169" math="0" shadow="0">
      <root>
        <mxCell id="0" />
        <mxCell id="1" parent="0" />
        <mxCell id="3bp__K_LEtmGNQhIIfoa-1" value="시작" style="ellipse;whiteSpace=wrap;html=1;" vertex="1" parent="1">
          <mxGeometry x="280" y="60" width="120" height="80" as="geometry" />
        </mxCell>
        <mxCell id="3bp__K_LEtmGNQhIIfoa-2" value="while lotto.count &amp;lt; 6" style="swimlane;whiteSpace=wrap;html=1;" vertex="1" parent="1">
          <mxGeometry x="240" y="260" width="200" height="180" as="geometry" />
        </mxCell>
        <mxCell id="3bp__K_LEtmGNQhIIfoa-5" value="&lt;span style=&quot;font-size: 11px;&quot;&gt;lotto.insert(Int.random(1...45))&lt;/span&gt;&lt;div&gt;&lt;span style=&quot;font-size: 11px;&quot;&gt;1~45에서 랜덤 숫자 추출&amp;nbsp;&lt;/span&gt;&lt;/div&gt;&lt;div&gt;&lt;span style=&quot;font-size: 11px;&quot;&gt;및 lotto에 추가&lt;/span&gt;&lt;/div&gt;" style="rounded=0;whiteSpace=wrap;html=1;" vertex="1" parent="3bp__K_LEtmGNQhIIfoa-2">
          <mxGeometry x="25" y="70" width="150" height="60" as="geometry" />
        </mxCell>
        <mxCell id="3bp__K_LEtmGNQhIIfoa-7" value="" style="endArrow=classic;html=1;rounded=0;entryX=0.5;entryY=0;entryDx=0;entryDy=0;" edge="1" parent="3bp__K_LEtmGNQhIIfoa-2" target="3bp__K_LEtmGNQhIIfoa-5">
          <mxGeometry width="50" height="50" relative="1" as="geometry">
            <mxPoint x="100" y="23" as="sourcePoint" />
            <mxPoint x="100" y="40" as="targetPoint" />
          </mxGeometry>
        </mxCell>
        <mxCell id="3bp__K_LEtmGNQhIIfoa-20" value="" style="endArrow=classic;html=1;rounded=0;" edge="1" parent="3bp__K_LEtmGNQhIIfoa-2">
          <mxGeometry width="50" height="50" relative="1" as="geometry">
            <mxPoint x="99.76999999999998" y="130" as="sourcePoint" />
            <mxPoint x="100" y="180" as="targetPoint" />
          </mxGeometry>
        </mxCell>
        <mxCell id="3bp__K_LEtmGNQhIIfoa-6" value="" style="endArrow=classic;html=1;rounded=0;exitX=0.5;exitY=1;exitDx=0;exitDy=0;" edge="1" parent="1" source="3bp__K_LEtmGNQhIIfoa-1">
          <mxGeometry width="50" height="50" relative="1" as="geometry">
            <mxPoint x="370" y="430" as="sourcePoint" />
            <mxPoint x="340" y="170" as="targetPoint" />
          </mxGeometry>
        </mxCell>
        <mxCell id="3bp__K_LEtmGNQhIIfoa-10" value="&lt;font style=&quot;font-size: 11px;&quot;&gt;lotto: Set&amp;lt;Int&amp;gt;&amp;nbsp;&lt;/font&gt;&lt;span style=&quot;background-color: initial; font-size: 11px;&quot;&gt;선언&lt;/span&gt;" style="rounded=0;whiteSpace=wrap;html=1;" vertex="1" parent="1">
          <mxGeometry x="280" y="170" width="120" height="60" as="geometry" />
        </mxCell>
        <mxCell id="3bp__K_LEtmGNQhIIfoa-11" value="" style="endArrow=classic;html=1;rounded=0;exitX=0.5;exitY=1;exitDx=0;exitDy=0;" edge="1" parent="1">
          <mxGeometry width="50" height="50" relative="1" as="geometry">
            <mxPoint x="339.85" y="230" as="sourcePoint" />
            <mxPoint x="339.85" y="260" as="targetPoint" />
          </mxGeometry>
        </mxCell>
        <mxCell id="3bp__K_LEtmGNQhIIfoa-14" value="&quot;\(lotto)&quot; 출력" style="shape=parallelogram;perimeter=parallelogramPerimeter;whiteSpace=wrap;html=1;fixedSize=1;" vertex="1" parent="1">
          <mxGeometry x="280" y="470" width="120" height="60" as="geometry" />
        </mxCell>
        <mxCell id="3bp__K_LEtmGNQhIIfoa-15" value="" style="endArrow=classic;html=1;rounded=0;exitX=0.5;exitY=1;exitDx=0;exitDy=0;" edge="1" parent="1">
          <mxGeometry width="50" height="50" relative="1" as="geometry">
            <mxPoint x="339.87" y="440" as="sourcePoint" />
            <mxPoint x="339.87" y="470" as="targetPoint" />
          </mxGeometry>
        </mxCell>
        <mxCell id="3bp__K_LEtmGNQhIIfoa-16" value="끝" style="ellipse;whiteSpace=wrap;html=1;" vertex="1" parent="1">
          <mxGeometry x="280" y="560" width="120" height="80" as="geometry" />
        </mxCell>
        <mxCell id="3bp__K_LEtmGNQhIIfoa-17" value="" style="endArrow=classic;html=1;rounded=0;" edge="1" parent="1">
          <mxGeometry width="50" height="50" relative="1" as="geometry">
            <mxPoint x="339.63" y="530" as="sourcePoint" />
            <mxPoint x="339.63" y="560" as="targetPoint" />
          </mxGeometry>
        </mxCell>
      </root>
    </mxGraphModel>
  </diagram>
</mxfile>
